<?xml version="1.0" ?>
<svg style="enable-background:new 0 0 64 64;" version="1.1" viewBox="0 0 64 64" xml:space="preserve"
     xmlns="http://www.w3.org/2000/svg"><style type="text/css">
	.st0{fill:#3f95ff;}
</style>
    <g id="GUIDES_64"/>
    <g id="Layer_3"/>
    <g id="Layer_2"><path class="st0" d="M28.9,35c0.3,1,1.4,1.6,2.4,1.2l3.8-1.3c1-0.3,1.6-1.4,1.2-2.4L35.1,29c-0.3-1-1.4-1.6-2.4-1.2L28.9,29   c-1,0.3-1.6,1.4-1.2,2.4L28.9,35z"/>
        <path class="st0"
              d="M39.7,57.7c19.2-5.8,23.7-14.1,18-33.4C51.9,5.1,43.5,0.6,24.3,6.3C5.1,12.1,0.6,20.5,6.3,39.7   C12.1,58.9,20.5,63.4,39.7,57.7z M16.2,27.2l2.1-0.7c0.8-0.3,1.2-1.1,0.9-1.9l-0.7-2.2c-0.5-1.4,0-2.9,1.3-3.6   c1.6-0.9,3.6-0.1,4.2,1.6l0.7,2.2c0.3,0.9,1.2,1.3,2.1,1l4.4-1.5c0.9-0.3,1.3-1.2,1-2.1l-0.7-2c-0.5-1.4,0-2.9,1.3-3.6   c1.6-0.9,3.6-0.1,4.2,1.6l0.8,2.3c0.3,0.8,1.1,1.2,1.9,0.9l2.1-0.7c1.4-0.5,2.9,0,3.6,1.3c0.9,1.6,0.1,3.6-1.6,4.2l-2.1,0.7   c-0.9,0.3-1.3,1.2-1,2.1l1.4,4.1c0.3,0.9,1.2,1.3,2.1,1l2.1-0.7c1.8-0.6,3.8,0.7,3.8,2.7c0,1.3-0.9,2.4-2.1,2.8l-2.1,0.7   c-0.8,0.3-1.2,1.1-0.9,1.9l0.7,2.2c0.4,1.2,0.1,2.7-1,3.4c-0.6,0.4-1.2,0.6-1.8,0.6c-1.2,0-2.3-0.8-2.7-2l-0.7-2.2   c-0.3-0.9-1.2-1.3-2.1-1l-4.4,1.5c-0.9,0.3-1.3,1.2-1,2.1l0.7,2c0.5,1.5-0.2,3.3-1.7,3.8c-0.4,0.1-0.7,0.2-1.1,0.2   c-1.2,0-2.3-0.8-2.7-2l-0.8-2.3c-0.3-0.8-1.1-1.2-1.9-0.9l-2.2,0.7c-0.3,0.1-0.7,0.2-1,0.1c-1.3,0-2.4-0.9-2.7-2.2   c-0.4-1.5,0.6-3,2.1-3.5l1.9-0.6c0.9-0.3,1.3-1.2,1-2.1l-1.4-4.1c-0.3-0.9-1.2-1.3-2.1-1l-2.1,0.7c-0.3,0.1-0.7,0.2-1,0.1   c-1.3,0-2.4-0.9-2.7-2.2C13.8,29.1,14.8,27.6,16.2,27.2z"/></g></svg>
